#N canvas 76 336 1789 718 12;
#X msg 538 -332 \; pd dsp 1;
#X msg 627 -332 \; pd dsp 0;
#X text 553 -295 ON;
#X text 625 -298 OFF;
#X obj 288 -12 mtof;
#X msg 245 -51 48;
#X msg 324 -51 57;
#X obj 447 201 min~;
#X obj 447 122 phasor~ 0.3;
#X obj 479 159 cyclone/pink~;
#X obj 452 657 *~ 0.1;
#X floatatom 829 758 5 0 1 0 - - - 0;
#X obj 813 -88 osc~;
#X obj 831 -157 mtof;
#X msg 805 -224 48;
#X obj 826 289 min~;
#X obj 826 333 lop~ 40;
#X obj 968 218 cyclone/pink~;
#X obj 716 345 *~;
#X obj 692 774 *~ 0.1;
#X obj 826 210 phasor~ 0.2;
#X msg 894 -216 56;
#X obj 400 281 min~;
#X obj 498 371 delwrite~ tbt 200;
#X obj 735 400 delread~ tbt 200;
#X msg 849 -263 52;
#X obj -71 522 delread~ tbt 120;
#X msg 905 -256 62;
#X obj 932 358 lop~ 40;
#X obj 860 490 *~;
#X msg 286 -51 69;
#X obj 859 538 *~ 0;
#X obj 856 102 random 80;
#X obj 856 127 / 100;
#X obj 856 77 metro 800;
#X obj 856 48 tgl 19 0 empty empty empty 0 -10 0 12 #fcfcfc #000000 #000000 0 1;
#X obj 965 102 random 80;
#X obj 965 77 metro 800;
#X obj 965 48 tgl 19 0 empty empty empty 0 -10 0 12 #fcfcfc #000000 #000000 0 1;
#X obj 965 127 / 300;
#X obj 798 66 bng 19 250 50 0 empty empty empty 0 -10 0 12 #fcfcfc #000000 #000000;
#X obj 573 307 vline~;
#X obj 574 281 \$1 300;
#X obj 1122 317 random 80;
#X obj 1122 292 metro 800;
#X obj 1122 263 tgl 19 0 empty empty empty 0 -10 0 12 #fcfcfc #000000 #000000 0 1;
#X obj 1122 342 * 10;
#X obj 270 176 phasor~;
#X obj 568 201 phasor~;
#X obj 522 235 *~;
#X obj 506 507 delwrite~ ddd 600;
#X obj -13 464 delread~ ddd 600;
#X obj 178 591 *~;
#X obj 806 -331 random 4;
#X obj 806 -299 select 0 1 2 3;
#X obj 454 -3 metro 3000;
#X obj 343 372 vcf~ 10;
#X obj 446 48 random 6000;
#X obj 254 -124 select 0 1 2;
#X msg 364 -50 53;
#X obj 269 -160 random 4;
#X obj 390 37 delay;
#X obj 747 598 vd~ ddd;
#X obj 847 618 vline~;
#X obj 1013 485 * 20;
#X obj 750 672 *~ 0.8;
#X obj -514 -189 mrpeach/unpackOSC;
#X floatatom -514 -121 5 0 0 0 - - - 0;
#X obj -514 -155 mrpeach/routeOSC /noise;
#X obj -515 -219 mrpeach/udpreceive 6449;
#X obj 659 271 *~;
#X obj 429 -117 tgl 19 0 empty empty empty 0 -10 0 12 #fcfcfc #000000 #000000 0 1;
#X obj -877 -81 mrpeach/routeOSC /num;
#X floatatom -877 -43 5 0 0 0 - - - 0;
#X obj -698 -81 mrpeach/routeOSC /size;
#X obj 1 337 *~;
#X floatatom -332 74 5 0 0 0 - - - 0;
#X obj -270 -79 expr~ $v1 * 2 - 1;
#X obj -167 12 vcf~ 1;
#X floatatom -269 -256 5 0 0 0 Mod\ freq - - 0;
#X obj -269 -227 osc~;
#X obj -269 -201 *~;
#X floatatom -188 -258 5 0 1 1 Mod\ amount - - 0;
#X obj -269 -175 +~ 200;
#X floatatom 30 -73 5 0 0 1 Carrier\ frequency - - 0;
#X obj -187 -158 t b f;
#X obj -186 -226 * 200, f 7;
#X obj -47 170 *~;
#X floatatom -29 -30 5 0 0 1 Mod\ Freq - - 0;
#X obj -29 3 osc~;
#X obj -29 30 expr~ ($v1 + 1) / 2;
#X obj -29 62 *~;
#X floatatom 57 69 5 0 1 1 Mod\ amount - - 0;
#X obj -29 98 expr~ 1 - $v1;
#X floatatom 32 -260 5 0 0 0 Mod\ freq - - 0;
#X obj 32 -231 osc~;
#X obj 32 -205 *~;
#X floatatom 106 -253 5 0 1 1 Mod\ amount - - 0;
#X obj 31 -172 +~ 200;
#X floatatom 107 -186 5 0 0 1 Carrier\ frequency - - 0;
#X obj 106 -162 t b f;
#X obj 104 -223 * 200, f 7;
#X obj -268 -107 phasor~ 200;
#X obj 258 865 rev2~ 100 90 3000 20;
#X floatatom -413 204 4 0 120 0 - - - 0;
#X floatatom -709 265 4 0 100 0 - - - 0;
#X floatatom -970 255 6 0 0 0 - - - 0;
#X floatatom -579 269 4 0 100 0 - - - 0;
#X text -922 255 crossover frequency \, Hz.;
#X obj 452 867 rev2~ 100 90 3000 20;
#X text -683 227 liveness/feedback (in percent: 0-100;
#X text -544 270 High Frequency damping (in percent: 0-100);
#X text -379 203 output level dB;
#X obj 408 1061 dac~;
#X obj 416 1002 clip~ -0.9 0.9;
#X floatatom -697 57 5 0 0 0 - - - 0;
#N canvas 36 456 496 287 map 0;
#X obj 19 12 inlet;
#X obj 19 89 outlet;
#X obj 121 15 inlet;
#X obj 222 15 inlet;
#X obj 294 13 inlet;
#X obj 392 11 inlet;
#X obj 19 59 expr $f4 + ( $f5 - $f4 ) * ( ( $f1 - $f2 ) / ( $f3 - $f2) );
#X connect 0 0 6 0;
#X connect 2 0 6 1;
#X connect 3 0 6 2;
#X connect 4 0 6 3;
#X connect 5 0 6 4;
#X connect 6 0 1 0;
#X restore -697 24 pd map;
#X f 11;
#X floatatom -697 -37 5 0 0 0 - - - 0;
#X obj -697 -8 pack 0 0 1 220 0;
#X floatatom -1080 -50 5 0 0 0 - - - 0;
#X obj -1080 -81 mrpeach/routeOSC /funScale;
#X floatatom -871 -257 5 0 0 0 - - - 0;
#X obj -871 -288 mrpeach/routeOSC /rad;
#X floatatom -1078 52 5 0 0 0 - - - 0;
#N canvas 36 456 496 287 map 0;
#X obj 19 12 inlet;
#X obj 19 89 outlet;
#X obj 121 15 inlet;
#X obj 222 15 inlet;
#X obj 294 13 inlet;
#X obj 392 11 inlet;
#X obj 19 59 expr $f4 + ( $f5 - $f4 ) * ( ( $f1 - $f2 ) / ( $f3 - $f2) );
#X connect 0 0 6 0;
#X connect 2 0 6 1;
#X connect 3 0 6 2;
#X connect 4 0 6 3;
#X connect 5 0 6 4;
#X connect 6 0 1 0;
#X restore -1078 19 pd map;
#X f 11;
#X floatatom -872 -162 5 0 0 0 - - - 0;
#N canvas 36 456 496 287 map 0;
#X obj 19 12 inlet;
#X obj 19 89 outlet;
#X obj 121 15 inlet;
#X obj 222 15 inlet;
#X obj 294 13 inlet;
#X obj 392 11 inlet;
#X obj 19 59 expr $f4 + ( $f5 - $f4 ) * ( ( $f1 - $f2 ) / ( $f3 - $f2) );
#X connect 0 0 6 0;
#X connect 2 0 6 1;
#X connect 3 0 6 2;
#X connect 4 0 6 3;
#X connect 5 0 6 4;
#X connect 6 0 1 0;
#X restore -872 -195 pd map;
#X f 11;
#X obj -872 -227 pack 0 0.3 5 0 4;
#X floatatom -829 67 5 0 0 0 - - - 0;
#N canvas 36 456 496 287 map 0;
#X obj 19 12 inlet;
#X obj 19 89 outlet;
#X obj 121 15 inlet;
#X obj 222 15 inlet;
#X obj 294 13 inlet;
#X obj 392 11 inlet;
#X obj 19 59 expr $f4 + ( $f5 - $f4 ) * ( ( $f1 - $f2 ) / ( $f3 - $f2) );
#X connect 0 0 6 0;
#X connect 2 0 6 1;
#X connect 3 0 6 2;
#X connect 4 0 6 3;
#X connect 5 0 6 4;
#X connect 6 0 1 0;
#X restore -829 34 pd map;
#X f 11;
#X obj -829 2 pack 0 0 1300 0 7;
#X floatatom -925 193 5 0 0 0 - - - 0;
#N canvas 36 456 496 287 map 0;
#X obj 19 12 inlet;
#X obj 19 89 outlet;
#X obj 121 15 inlet;
#X obj 222 15 inlet;
#X obj 294 13 inlet;
#X obj 392 11 inlet;
#X obj 19 59 expr $f4 + ( $f5 - $f4 ) * ( ( $f1 - $f2 ) / ( $f3 - $f2) );
#X connect 0 0 6 0;
#X connect 2 0 6 1;
#X connect 3 0 6 2;
#X connect 4 0 6 3;
#X connect 5 0 6 4;
#X connect 6 0 1 0;
#X restore -925 160 pd map;
#X f 11;
#X obj -925 128 pack 0 0 1300 100 0;
#N canvas 36 456 496 287 map 0;
#X obj 19 12 inlet;
#X obj 19 89 outlet;
#X obj 121 15 inlet;
#X obj 222 15 inlet;
#X obj 294 13 inlet;
#X obj 392 11 inlet;
#X obj 19 59 expr $f4 + ( $f5 - $f4 ) * ( ( $f1 - $f2 ) / ( $f3 - $f2) );
#X connect 0 0 6 0;
#X connect 2 0 6 1;
#X connect 3 0 6 2;
#X connect 4 0 6 3;
#X connect 5 0 6 4;
#X connect 6 0 1 0;
#X restore -513 -33 pd map;
#X f 11;
#X obj -513 -63 pack 0 0 1 0.2 200;
#X floatatom -1082 -245 5 0 0 0 - - - 0;
#X floatatom -1080 -143 5 0 0 0 - - - 0;
#N canvas 36 456 496 287 map 0;
#X obj 19 12 inlet;
#X obj 19 89 outlet;
#X obj 121 15 inlet;
#X obj 222 15 inlet;
#X obj 294 13 inlet;
#X obj 392 11 inlet;
#X obj 19 59 expr $f4 + ( $f5 - $f4 ) * ( ( $f1 - $f2 ) / ( $f3 - $f2) );
#X connect 0 0 6 0;
#X connect 2 0 6 1;
#X connect 3 0 6 2;
#X connect 4 0 6 3;
#X connect 5 0 6 4;
#X connect 6 0 1 0;
#X restore -1080 -176 pd map;
#X f 11;
#X obj -1082 -276 mrpeach/routeOSC /bg;
#X floatatom -1297 -245 5 0 0 0 - - - 0;
#X floatatom -1295 -143 5 0 0 0 - - - 0;
#N canvas 36 456 496 287 map 0;
#X obj 19 12 inlet;
#X obj 19 89 outlet;
#X obj 121 15 inlet;
#X obj 222 15 inlet;
#X obj 294 13 inlet;
#X obj 392 11 inlet;
#X obj 19 59 expr $f4 + ( $f5 - $f4 ) * ( ( $f1 - $f2 ) / ( $f3 - $f2) );
#X connect 0 0 6 0;
#X connect 2 0 6 1;
#X connect 3 0 6 2;
#X connect 4 0 6 3;
#X connect 5 0 6 4;
#X connect 6 0 1 0;
#X restore -1295 -176 pd map;
#X f 11;
#X obj -1297 -276 mrpeach/routeOSC /alpha;
#X obj 561 1006 clip~ -0.9 0.9;
#X obj 208 313 lop~ 40;
#X obj 36 -118 expr ($f1 + $f2) / 2;
#X obj 429 500 0.2;
#X obj 879 684 loadbang;
#X obj 883 716 0.4;
#X floatatom 252 -289 5 0 0 0 - - - 0;
#X obj 252 -323 mrpeach/routeOSC /audioToggle;
#X obj 271 -218 bng 19 250 50 0 empty empty empty 0 -10 0 12 #fcfcfc #000000 #000000;
#X obj 338 -270 select 0 1 2 3 4 5 6 7 8 9 10 11 12 13 14 15 16;
#X obj 307 -220 bng 19 250 50 0 empty empty empty 0 -10 0 12 #fcfcfc #000000 #000000;
#X obj 339 -219 bng 19 250 50 0 empty empty empty 0 -10 0 12 #fcfcfc #000000 #000000;
#X obj 363 -218 bng 19 250 50 0 empty empty empty 0 -10 0 12 #fcfcfc #000000 #000000;
#X obj 400 -217 bng 19 250 50 0 empty empty empty 0 -10 0 12 #fcfcfc #000000 #000000;
#X obj 435 -218 bng 19 250 50 0 empty empty empty 0 -10 0 12 #fcfcfc #000000 #000000;
#X obj 463 -217 bng 19 250 50 0 empty empty empty 0 -10 0 12 #fcfcfc #000000 #000000;
#X obj 489 -215 bng 19 250 50 0 empty empty empty 0 -10 0 12 #fcfcfc #000000 #000000;
#X obj 512 -216 bng 19 250 50 0 empty empty empty 0 -10 0 12 #fcfcfc #000000 #000000;
#X obj 544 -214 bng 19 250 50 0 empty empty empty 0 -10 0 12 #fcfcfc #000000 #000000;
#X obj 571 -214 bng 19 250 50 0 empty empty empty 0 -10 0 12 #fcfcfc #000000 #000000;
#X obj 596 -214 bng 19 250 50 0 empty empty empty 0 -10 0 12 #fcfcfc #000000 #000000;
#X obj 623 -215 bng 19 250 50 0 empty empty empty 0 -10 0 12 #fcfcfc #000000 #000000;
#X obj 647 -216 bng 19 250 50 0 empty empty empty 0 -10 0 12 #fcfcfc #000000 #000000;
#X obj 670 -216 bng 19 250 50 0 empty empty empty 0 -10 0 12 #fcfcfc #000000 #000000;
#X obj 697 -216 bng 19 250 50 0 empty empty empty 0 -10 0 12 #fcfcfc #000000 #000000;
#X obj 721 -216 bng 19 250 50 0 empty empty empty 0 -10 0 12 #fcfcfc #000000 #000000;
#X obj 747 -219 bng 19 250 50 0 empty empty empty 0 -10 0 12 #fcfcfc #000000 #000000;
#X obj -52 -318 200;
#X obj -145 -321 loadbang;
#X obj 188 62 loadbang;
#X obj 188 86 1;
#X obj -480 150 loadbang;
#X obj -480 174 73;
#X obj -684 154 loadbang;
#X obj -685 187 46;
#X obj -1086 188 loadbang;
#X obj -1072 222 76;
#X obj -272 -310 0.2;
#X obj -403 -324 loadbang;
#X obj 107 -162;
#X obj -2 -345 loadbang;
#X obj -1295 -208 pack 0 0 1 0 1;
#X obj -1078 -13 pack 0 0.3 5 0 1;
#X obj 5 -308 220;
#X obj -1080 -208 pack 0 0 1 0 100;
#X connect 4 0 84 0;
#X connect 4 0 146 1;
#X connect 5 0 4 0;
#X connect 6 0 4 0;
#X connect 7 0 145 0;
#X connect 8 0 7 0;
#X connect 9 0 7 1;
#X connect 10 0 103 0;
#X connect 10 0 109 0;
#X connect 10 0 114 0;
#X connect 10 0 114 1;
#X connect 11 0 10 1;
#X connect 12 0 18 0;
#X connect 12 0 22 1;
#X connect 13 0 48 0;
#X connect 13 0 12 0;
#X connect 14 0 13 0;
#X connect 15 0 16 0;
#X connect 16 0 18 1;
#X connect 17 0 15 1;
#X connect 18 0 19 0;
#X connect 19 0 144 0;
#X connect 20 0 15 0;
#X connect 20 0 22 1;
#X connect 20 0 28 0;
#X connect 21 0 13 0;
#X connect 22 0 23 0;
#X connect 22 0 56 0;
#X connect 24 0 19 0;
#X connect 24 0 29 0;
#X connect 25 0 13 0;
#X connect 26 0 52 0;
#X connect 27 0 13 0;
#X connect 28 0 29 1;
#X connect 29 0 31 0;
#X connect 30 0 4 0;
#X connect 31 0 23 0;
#X connect 32 0 33 0;
#X connect 33 0 20 0;
#X connect 34 0 32 0;
#X connect 35 0 34 0;
#X connect 36 0 39 0;
#X connect 37 0 36 0;
#X connect 38 0 37 0;
#X connect 39 0 8 0;
#X connect 40 0 32 0;
#X connect 41 0 56 1;
#X connect 42 0 41 0;
#X connect 43 0 46 0;
#X connect 43 0 64 0;
#X connect 44 0 43 0;
#X connect 45 0 44 0;
#X connect 46 0 42 0;
#X connect 47 0 49 0;
#X connect 48 0 49 1;
#X connect 49 0 50 0;
#X connect 49 0 56 0;
#X connect 51 0 52 0;
#X connect 52 0 19 0;
#X connect 52 0 10 0;
#X connect 53 0 54 0;
#X connect 54 0 14 0;
#X connect 54 1 25 0;
#X connect 54 2 21 0;
#X connect 54 3 27 0;
#X connect 55 0 53 0;
#X connect 55 0 57 0;
#X connect 55 0 61 0;
#X connect 56 0 23 0;
#X connect 56 0 52 1;
#X connect 57 0 55 1;
#X connect 58 0 5 0;
#X connect 58 1 30 0;
#X connect 58 2 6 0;
#X connect 58 3 59 0;
#X connect 59 0 4 0;
#X connect 60 0 58 0;
#X connect 61 0 60 0;
#X connect 62 0 19 0;
#X connect 62 0 65 0;
#X connect 63 0 62 0;
#X connect 64 0 63 0;
#X connect 65 0 50 0;
#X connect 66 0 68 0;
#X connect 66 0 72 0;
#X connect 66 0 74 0;
#X connect 66 0 120 0;
#X connect 66 0 122 0;
#X connect 66 0 139 0;
#X connect 66 0 143 0;
#X connect 66 0 151 0;
#X connect 67 0 135 0;
#X connect 68 0 67 0;
#X connect 69 0 66 0;
#X connect 71 0 55 0;
#X connect 72 0 73 0;
#X connect 73 0 130 0;
#X connect 73 0 133 0;
#X connect 74 0 117 0;
#X connect 75 0 10 0;
#X connect 76 0 146 0;
#X connect 77 0 78 0;
#X connect 78 1 87 0;
#X connect 79 0 80 0;
#X connect 80 0 81 0;
#X connect 81 0 83 0;
#X connect 82 0 86 0;
#X connect 83 0 102 0;
#X connect 84 0 83 1;
#X connect 84 0 85 0;
#X connect 85 0 82 0;
#X connect 85 1 86 1;
#X connect 86 0 81 1;
#X connect 87 0 22 0;
#X connect 87 0 75 0;
#X connect 87 0 10 0;
#X connect 88 0 89 0;
#X connect 89 0 90 0;
#X connect 90 0 91 0;
#X connect 91 0 93 0;
#X connect 92 0 91 1;
#X connect 93 0 87 1;
#X connect 94 0 95 0;
#X connect 95 0 96 0;
#X connect 96 0 98 0;
#X connect 97 0 101 0;
#X connect 98 0 78 1;
#X connect 99 0 98 1;
#X connect 99 0 100 0;
#X connect 99 0 183 0;
#X connect 100 0 97 0;
#X connect 100 1 101 1;
#X connect 101 0 96 1;
#X connect 102 0 77 0;
#X connect 104 0 109 1;
#X connect 105 0 109 2;
#X connect 106 0 109 3;
#X connect 107 0 109 4;
#X connect 109 0 114 0;
#X connect 109 1 114 1;
#X connect 109 2 114 0;
#X connect 109 3 114 1;
#X connect 114 0 113 0;
#X connect 115 0 76 0;
#X connect 116 0 115 0;
#X connect 117 0 118 0;
#X connect 118 0 116 0;
#X connect 119 0 186 0;
#X connect 120 0 119 0;
#X connect 121 0 127 0;
#X connect 122 0 121 0;
#X connect 123 0 97 0;
#X connect 124 0 123 0;
#X connect 125 0 94 0;
#X connect 126 0 125 0;
#X connect 127 0 126 0;
#X connect 128 0 88 0;
#X connect 129 0 128 0;
#X connect 130 0 129 0;
#X connect 131 0 107 0;
#X connect 132 0 131 0;
#X connect 133 0 132 0;
#X connect 134 0 79 0;
#X connect 135 0 134 0;
#X connect 136 0 188 0;
#X connect 138 0 137 0;
#X connect 139 0 136 0;
#X connect 140 0 185 0;
#X connect 142 0 141 0;
#X connect 143 0 140 0;
#X connect 144 0 113 1;
#X connect 145 0 75 1;
#X connect 146 0 84 0;
#X connect 148 0 149 0;
#X connect 149 0 11 0;
#X connect 150 0 153 0;
#X connect 151 0 150 0;
#X connect 152 0 71 0;
#X connect 153 0 152 0;
#X connect 153 1 154 0;
#X connect 153 2 155 0;
#X connect 153 3 156 0;
#X connect 153 4 157 0;
#X connect 153 5 158 0;
#X connect 153 6 159 0;
#X connect 153 7 160 0;
#X connect 153 8 161 0;
#X connect 153 9 162 0;
#X connect 153 10 163 0;
#X connect 153 11 164 0;
#X connect 153 12 165 0;
#X connect 153 13 166 0;
#X connect 153 14 167 0;
#X connect 153 15 168 0;
#X connect 153 16 169 0;
#X connect 153 17 170 0;
#X connect 154 0 35 0;
#X connect 155 0 38 0;
#X connect 156 0 45 0;
#X connect 172 0 171 0;
#X connect 173 0 174 0;
#X connect 174 0 92 0;
#X connect 175 0 176 0;
#X connect 176 0 104 0;
#X connect 177 0 178 0;
#X connect 178 0 105 0;
#X connect 179 0 180 0;
#X connect 180 0 106 0;
#X connect 181 0 82 0;
#X connect 182 0 181 0;
#X connect 184 0 187 0;
#X connect 185 0 142 0;
#X connect 186 0 124 0;
#X connect 187 0 99 0;
#X connect 188 0 138 0;
